<svg width="17" height="13" viewBox="0 0 17 13" fill="none" xmlns="http://www.w3.org/2000/svg">
<path d="M15.6097 5.286H14.9267L13.1699 1.49134C13.0903 1.31965 12.9607 1.17379 12.7966 1.07142C12.6325 0.969042 12.441 0.914553 12.2453 0.914551H4.80794C4.61223 0.914553 4.42072 0.969042 4.25661 1.07142C4.0925 1.17379 3.96284 1.31965 3.88333 1.49134L2.12646 5.286H1.44344C1.30926 5.286 1.18057 5.33717 1.08569 5.42826C0.990804 5.51935 0.9375 5.64289 0.9375 5.77171C0.9375 5.90053 0.990804 6.02408 1.08569 6.11517C1.18057 6.20626 1.30926 6.25743 1.44344 6.25743H1.94938V11.1146C1.94938 11.3722 2.05599 11.6193 2.24575 11.8015C2.43552 11.9837 2.69289 12.086 2.96126 12.086H4.47908C4.74744 12.086 5.00482 11.9837 5.19458 11.8015C5.38435 11.6193 5.49096 11.3722 5.49096 11.1146V10.1432H11.5622V11.1146C11.5622 11.3722 11.6688 11.6193 11.8586 11.8015C12.0484 11.9837 12.3057 12.086 12.5741 12.086H14.0919C14.3603 12.086 14.6177 11.9837 14.8074 11.8015C14.9972 11.6193 15.1038 11.3722 15.1038 11.1146V6.25743H15.6097C15.7439 6.25743 15.8726 6.20626 15.9675 6.11517C16.0624 6.02408 16.1157 5.90053 16.1157 5.77171C16.1157 5.64289 16.0624 5.51935 15.9675 5.42826C15.8726 5.33717 15.7439 5.286 15.6097 5.286Z" fill="white"/>
</svg>
