<svg width="20" height="16" viewBox="0 0 20 16" fill="none" xmlns="http://www.w3.org/2000/svg">
<path d="M19.3333 6.39745H18.4333L16.1183 1.39173C16.0136 1.16525 15.8427 0.972834 15.6265 0.837787C15.4102 0.702741 15.1579 0.630862 14.9 0.630859H5.1C4.84212 0.630862 4.58977 0.702741 4.37353 0.837787C4.15729 0.972834 3.98643 1.16525 3.88167 1.39173L1.56667 6.39745H0.666667C0.489856 6.39745 0.320286 6.46496 0.195262 6.58512C0.0702379 6.70528 0 6.86825 0 7.03818C0 7.20812 0.0702379 7.37109 0.195262 7.49125C0.320286 7.61141 0.489856 7.67891 0.666667 7.67891H1.33333V14.0862C1.33333 14.4261 1.47381 14.752 1.72386 14.9924C1.97391 15.2327 2.31304 15.3677 2.66667 15.3677H4.66667C5.02029 15.3677 5.35943 15.2327 5.60948 14.9924C5.85952 14.752 6 14.4261 6 14.0862V12.8048H14V14.0862C14 14.4261 14.1405 14.752 14.3905 14.9924C14.6406 15.2327 14.9797 15.3677 15.3333 15.3677H17.3333C17.687 15.3677 18.0261 15.2327 18.2761 14.9924C18.5262 14.752 18.6667 14.4261 18.6667 14.0862V7.67891H19.3333C19.5101 7.67891 19.6797 7.61141 19.8047 7.49125C19.9298 7.37109 20 7.20812 20 7.03818C20 6.86825 19.9298 6.70528 19.8047 6.58512C19.6797 6.46496 19.5101 6.39745 19.3333 6.39745Z" fill="#403C89"/>
</svg>
