<svg width="18" height="20" viewBox="0 0 18 20" fill="none" xmlns="http://www.w3.org/2000/svg">
<path d="M5.17164 3.59266C6.13805 3.59266 6.92151 4.37627 6.92164 5.34266V7.17176C6.92141 7.58577 6.58571 7.92176 6.17164 7.92176C5.75773 7.92156 5.42187 7.58565 5.42164 7.17176V6.1532L2.45972 9.11609C1.97163 9.60425 1.97159 10.3955 2.45972 10.8837L9.53101 17.955C9.8236 18.2478 9.82372 18.7227 9.53101 19.0155C9.23821 19.3083 8.76338 19.3081 8.47047 19.0155L1.39918 11.9442C0.325255 10.8703 0.325294 9.12949 1.39918 8.05555L4.36109 5.09266H3.34351C2.92933 5.09262 2.59351 4.75685 2.59351 4.34266C2.59365 3.92857 2.92941 3.59269 3.34351 3.59266H5.17164ZM8.47047 0.984257C8.76337 0.691486 9.23816 0.691405 9.53101 0.984257L16.6023 8.05555C17.6758 9.12943 17.6759 10.8704 16.6023 11.9442L13.6394 14.9071H14.657C15.0712 14.9071 15.407 15.2429 15.407 15.6571C15.4068 16.0711 15.0711 16.4071 14.657 16.4071H12.8289C11.8625 16.4071 11.0791 15.6234 11.0789 14.6571V12.828C11.079 12.4139 11.4147 12.078 11.8289 12.078C12.243 12.078 12.5787 12.4139 12.5789 12.828V13.8456L15.5408 10.8837C16.0289 10.3955 16.0289 9.60425 15.5408 9.11609L8.47047 2.0448C8.17757 1.75191 8.17757 1.27715 8.47047 0.984257Z" fill="white"/>
</svg>
