<svg width="20" height="21" viewBox="0 0 20 21" fill="none" xmlns="http://www.w3.org/2000/svg">
<path fill-rule="evenodd" clip-rule="evenodd" d="M12.5 10.9683H13.8188C14.038 10.2698 14.1667 9.56859 14.1667 8.88493C14.1667 4.28256 11.555 2.21826 8.33333 2.21826C5.11167 2.21826 2.5 4.28256 2.5 8.88493C2.5 11.6191 4.55883 14.634 6.23023 16.6311C7.09957 17.6698 8.48624 17.9003 9.58517 17.3226C9.58395 17.2879 9.58333 17.2532 9.58333 17.2183V13.8849C9.58333 12.2741 10.8892 10.9683 12.5 10.9683ZM8.33333 8.88493C9.25381 8.88493 10 8.13874 10 7.21826C10 6.29779 9.25381 5.55159 8.33333 5.55159C7.41286 5.55159 6.66667 6.29779 6.66667 7.21826C6.66667 8.13874 7.41286 8.88493 8.33333 8.88493ZM16.9778 14.956H17.2778C17.3367 14.956 17.3932 14.9789 17.4349 15.0197C17.4766 15.0605 17.5 15.1158 17.5 15.1734C17.5 15.2311 17.4766 15.2864 17.4349 15.3271C17.3932 15.3679 17.3367 15.3908 17.2778 15.3908H17.0556V17.5647C17.0556 17.68 17.0087 17.7906 16.9254 17.8722C16.842 17.9537 16.729 17.9995 16.6111 17.9995H15.9444C15.8266 17.9995 15.7135 17.9537 15.6302 17.8722C15.5468 17.7906 15.5 17.68 15.5 17.5647V17.1299H12.8333V17.5647C12.8333 17.68 12.7865 17.7906 12.7032 17.8722C12.6198 17.9537 12.5068 17.9995 12.3889 17.9995H11.7222C11.6043 17.9995 11.4913 17.9537 11.408 17.8722C11.3246 17.7906 11.2778 17.68 11.2778 17.5647V15.3908H11.0556C10.9966 15.3908 10.9401 15.3679 10.8984 15.3271C10.8567 15.2864 10.8333 15.2311 10.8333 15.1734C10.8333 15.1158 10.8567 15.0605 10.8984 15.0197C10.9401 14.9789 10.9966 14.956 11.0556 14.956H11.3556L12.1272 13.2577C12.1621 13.1808 12.2191 13.1155 12.2912 13.0697C12.3633 13.0239 12.4474 12.9995 12.5333 12.9995H15.8C15.886 12.9995 15.9701 13.0239 16.0422 13.0697C16.1142 13.1155 16.1712 13.1808 16.2061 13.2577L16.9778 14.956Z" fill="white"/>
</svg>
